<svg width="618" height="507" viewBox="0 0 618 507" fill="none" xmlns="http://www.w3.org/2000/svg">
<g id="No Results">
<g id="circle">
<path id="Stroke 1" d="M21.2233 232.948V238.171" stroke="#D2D8DF" stroke-width="2.921" stroke-linecap="round"/>
<g id="Group 8">
<path id="Stroke 2" d="M9.49182 235.777L13.7598 240.17" stroke="#D2D8DF" stroke-width="2.921" stroke-linecap="round"/>
<path id="Stroke 4" d="M4.5 247.472H10.5349" stroke="#D2D8DF" stroke-width="2.921" stroke-linecap="round"/>
<path id="Stroke 6" d="M9.0022 259.376L13.2702 254.982" stroke="#D2D8DF" stroke-width="2.921" stroke-linecap="round"/>
</g>
<path id="Stroke 9" d="M21.2233 260.805V255.582" stroke="#D2D8DF" stroke-width="2.921" stroke-linecap="round"/>
<path id="Stroke 10" d="M29.9284 257.322L26.4463 253.84" stroke="#D2D8DF" stroke-width="2.921" stroke-linecap="round"/>
<path id="Stroke 11" d="M36.8924 248.618H31.6694" stroke="#D2D8DF" stroke-width="2.921" stroke-linecap="round"/>
<path id="Stroke 12" d="M33.4104 236.43L29.9284 239.912" stroke="#D2D8DF" stroke-width="2.921" stroke-linecap="round"/>
<path id="Stroke 13" d="M301.527 4.875V8.35703" stroke="#D2D8DF" stroke-width="2.921" stroke-linecap="round"/>
<path id="Stroke 15" d="M291.081 15.3208H294.563" stroke="#D2D8DF" stroke-width="2.921" stroke-linecap="round"/>
<path id="Stroke 16" d="M301.527 25.7667V22.2847" stroke="#D2D8DF" stroke-width="2.921" stroke-linecap="round"/>
<path id="Stroke 17" d="M310.232 15.3208H306.75" stroke="#D2D8DF" stroke-width="2.921" stroke-linecap="round"/>
<path id="Stroke 18" d="M99.569 151.121V156.344" stroke="#D2D8DF" stroke-width="2.921" stroke-linecap="round"/>
<path id="Stroke 19" d="M83.8998 166.79H89.1229" stroke="#D2D8DF" stroke-width="2.921" stroke-linecap="round"/>
<path id="Stroke 20" d="M99.569 180.717V175.494" stroke="#D2D8DF" stroke-width="2.921" stroke-linecap="round"/>
<path id="Stroke 21" d="M113.497 166.79H108.274" stroke="#D2D8DF" stroke-width="2.921" stroke-linecap="round"/>
<g id="Group 42">
<path id="Stroke 22" d="M474.329 340.96C478.49 340.96 481.864 344.335 481.864 348.497C481.864 352.66 478.49 356.034 474.329 356.034C470.168 356.034 466.794 352.66 466.794 348.497" stroke="#D2D8DF" stroke-width="2.921" stroke-linecap="round"/>
<path id="Fill 26" fill-rule="evenodd" clip-rule="evenodd" d="M508.813 272.58C513.287 271.184 520.145 265.712 521.733 259.825C523.172 265.029 529.207 271.184 534.652 271.65C528.523 273.82 522.662 280.268 521.733 285.333C521.1 280.17 512.994 273.332 508.813 272.58Z" fill="#EBECEE"/>
<path id="Fill 28" fill-rule="evenodd" clip-rule="evenodd" d="M49.5522 338.638C51.79 337.94 55.2175 335.205 56.0113 332.262C56.7311 334.862 59.7478 337.94 62.4703 338.174C59.4063 339.258 56.4768 342.482 56.0113 345.015C55.695 342.433 51.6421 339.014 49.5522 338.638Z" fill="#EBECEE"/>
<path id="Fill 30" fill-rule="evenodd" clip-rule="evenodd" d="M91.0797 96.4478C91.0797 99.6767 88.4636 102.292 85.237 102.292C82.0089 102.292 79.3943 99.6767 79.3943 96.4478C79.3943 93.2203 82.0089 90.6035 85.237 90.6035C88.4636 90.6035 91.0797 93.2203 91.0797 96.4478Z" fill="#D1D8DF"/>
<path id="Fill 32" fill-rule="evenodd" clip-rule="evenodd" d="M481.233 112.14C481.233 117.535 476.859 121.908 471.467 121.908C466.072 121.908 461.7 117.535 461.7 112.14C461.7 106.745 466.072 102.372 471.467 102.372C476.859 102.372 481.233 106.745 481.233 112.14Z" fill="#EBECEE"/>
<path id="Fill 34" fill-rule="evenodd" clip-rule="evenodd" d="M616.5 85.6752C616.5 89.9553 613.033 93.4237 608.755 93.4237C604.476 93.4237 601.009 89.9553 601.009 85.6752C601.009 81.3952 604.476 77.9268 608.755 77.9268C613.033 77.9268 616.5 81.3952 616.5 85.6752Z" fill="#EBECEE"/>
<path id="Stroke 36" fill-rule="evenodd" clip-rule="evenodd" d="M200.275 447.559C200.275 450.257 198.089 452.444 195.392 452.444C192.696 452.444 190.51 450.257 190.51 447.559C190.51 444.861 192.696 442.674 195.392 442.674C198.089 442.674 200.275 444.861 200.275 447.559Z" stroke="#D2D8DF" stroke-width="2.921" stroke-linecap="round"/>
<path id="Stroke 38" fill-rule="evenodd" clip-rule="evenodd" d="M197.37 58.9024C197.37 62.1313 194.754 64.7466 191.527 64.7466C188.301 64.7466 185.685 62.1313 185.685 58.9024C185.685 55.6749 188.301 53.0581 191.527 53.0581C194.754 53.0581 197.37 55.6749 197.37 58.9024Z" stroke="#D2D8DF" stroke-width="2.921" stroke-linecap="round"/>
<path id="Stroke 40" fill-rule="evenodd" clip-rule="evenodd" d="M346.406 501.651C342.672 503.071 338.494 501.195 337.073 497.462C335.653 493.728 337.527 489.547 341.262 488.127C344.994 486.706 349.173 488.581 350.593 492.316C352.015 496.05 350.139 500.23 346.406 501.651Z" stroke="#D2D8DF" stroke-width="2.921" stroke-linecap="round"/>
</g>
</g>
<g id="search">
<g id="documents">
<path id="Fill 1" fill-rule="evenodd" clip-rule="evenodd" d="M344.18 363.524H201.409C191.36 363.524 183.134 355.274 183.134 345.191V141.592C183.134 131.509 191.36 123.264 201.409 123.264H344.18C354.233 123.264 362.459 131.509 362.459 141.592V345.191C362.459 355.274 354.233 363.524 344.18 363.524Z" fill="#E0E2EE"/>
<path id="Fill 3" fill-rule="evenodd" clip-rule="evenodd" d="M331.993 372.229H189.222C179.173 372.229 170.947 363.979 170.947 353.897V150.298C170.947 140.215 179.173 131.969 189.222 131.969H331.993C342.046 131.969 350.272 140.215 350.272 150.298V353.897C350.272 363.979 342.046 372.229 331.993 372.229Z" fill="#E8EBF2"/>
<path id="Fill 5" fill-rule="evenodd" clip-rule="evenodd" d="M320.139 379.101H177.072C167.003 379.101 158.76 370.885 158.76 360.844V158.088C158.76 148.047 167.003 139.835 177.072 139.835H320.139C330.213 139.835 338.455 148.047 338.455 158.088V360.844C338.455 370.885 330.213 379.101 320.139 379.101Z" fill="#D8DBEA"/>
<path id="Fill 8" fill-rule="evenodd" clip-rule="evenodd" d="M320.139 379.101H177.072C167.003 379.101 158.76 370.885 158.76 360.844V158.088C158.76 148.047 167.003 139.835 177.072 139.835H320.139C330.213 139.835 338.455 148.047 338.455 158.088V360.844C338.455 370.885 330.213 379.101 320.139 379.101Z" fill="#F1F2F7"/>
<path id="Fill 11" fill-rule="evenodd" clip-rule="evenodd" d="M299.517 201.61H193.845C190.828 201.61 188.357 199.26 188.357 196.389C188.357 193.514 190.828 191.164 193.845 191.164H299.517C302.535 191.164 305.005 193.514 305.005 196.389C305.005 199.26 302.535 201.61 299.517 201.61Z" fill="#E0E2EE"/>
<path id="Fill 13" fill-rule="evenodd" clip-rule="evenodd" d="M299.517 232.947H193.845C190.828 232.947 188.357 230.597 188.357 227.726C188.357 224.851 190.828 222.501 193.845 222.501H299.517C302.535 222.501 305.005 224.851 305.005 227.726C305.005 230.597 302.535 232.947 299.517 232.947Z" fill="#E0E2EE"/>
<path id="Fill 15" fill-rule="evenodd" clip-rule="evenodd" d="M299.517 264.286H193.845C190.828 264.286 188.357 261.936 188.357 259.065C188.357 256.194 190.828 253.84 193.845 253.84H299.517C302.535 253.84 305.005 256.194 305.005 259.065C305.005 261.936 302.535 264.286 299.517 264.286Z" fill="#E0E2EE"/>
<path id="Fill 17" fill-rule="evenodd" clip-rule="evenodd" d="M299.517 295.625H193.845C190.828 295.625 188.357 293.275 188.357 290.404C188.357 287.529 190.828 285.179 193.845 285.179H299.517C302.535 285.179 305.005 287.529 305.005 290.404C305.005 293.275 302.535 295.625 299.517 295.625Z" fill="#E0E2EE"/>
<path id="Fill 19" fill-rule="evenodd" clip-rule="evenodd" d="M249.004 326.962H193.869C190.838 326.962 188.357 324.612 188.357 321.741C188.357 318.866 190.838 316.516 193.869 316.516H249.004C252.035 316.516 254.516 318.866 254.516 321.741C254.516 324.612 252.035 326.962 249.004 326.962Z" fill="#E0E2EE"/>
</g>
<g id="search_2">
<path id="Fill 21" fill-rule="evenodd" clip-rule="evenodd" d="M360.291 286.461C339.161 307.587 306.449 309.971 282.7 293.659C279.665 291.537 276.776 289.154 274.082 286.461C272.696 285.078 271.388 283.652 270.157 282.15C267.693 279.151 265.535 275.953 263.768 272.648C260.653 267.066 258.535 261.143 257.378 255.021C253.648 235.822 259.226 215.156 274.082 200.306C288.974 185.413 309.643 179.871 328.846 183.565C334.965 184.757 340.893 186.875 346.476 189.954C349.786 191.761 352.941 193.918 355.945 196.381C357.442 197.609 358.869 198.92 360.251 200.306C362.95 203 365.369 205.884 367.451 208.923C383.77 232.663 381.381 265.374 360.291 286.461Z" fill="white" fill-opacity="0.1"/>
<path id="Fill 23" fill-rule="evenodd" clip-rule="evenodd" d="M354.379 282.299C332.395 304.286 296.77 304.282 274.783 282.299C252.824 260.341 252.824 224.711 274.812 202.728C296.77 180.769 332.395 180.769 354.354 202.728C376.337 224.711 376.337 260.341 354.379 282.299ZM365.66 191.433C337.443 163.216 291.718 163.216 263.501 191.433C235.288 219.647 235.263 265.4 263.476 293.618C289.157 319.29 329.409 321.606 357.721 300.527C360.486 298.465 363.149 296.154 365.689 293.618C368.225 291.077 370.537 288.414 372.594 285.649C393.673 257.334 391.337 217.11 365.66 191.433Z" fill="#E0E2EE"/>
<path id="Fill 25" fill-rule="evenodd" clip-rule="evenodd" d="M476.708 399.982L475.523 401.167C467.686 409.008 454.852 409.008 447.011 401.167L374.646 328.802L404.343 299.105L476.708 371.47C484.549 379.311 484.549 392.141 476.708 399.982Z" fill="url(#paint0_linear_1390_27591)"/>
<path id="Fill 27" fill-rule="evenodd" clip-rule="evenodd" d="M374.154 283.437L395.538 304.821L380.357 319.998L358.977 298.614C361.799 296.51 364.512 294.152 367.108 291.564C369.696 288.976 372.054 286.259 374.154 283.437Z" fill="#E0E2EE"/>
<path id="Fill 29" fill-rule="evenodd" clip-rule="evenodd" d="M475.625 370.581L446.117 400.085L440.805 394.769L470.309 365.265L475.625 370.581Z" fill="#EF545F"/>
<path id="Fill 31" fill-rule="evenodd" clip-rule="evenodd" d="M405.984 300.127L375.668 330.443L371.164 325.94L401.48 295.623L405.984 300.127Z" fill="url(#paint1_linear_1390_27591)"/>
<path id="Fill 33" fill-rule="evenodd" clip-rule="evenodd" d="M339.826 195.165L265.478 269.509C262.678 264.49 260.774 259.166 259.739 253.662L323.978 189.422C329.478 190.497 334.807 192.397 339.826 195.165Z" fill="white" fill-opacity="0.5"/>
<path id="Fill 35" fill-rule="evenodd" clip-rule="evenodd" d="M364.2 212.835L283.822 288.659C280.944 286.764 278.204 284.631 275.649 282.221C274.334 280.98 273.09 279.707 271.926 278.364L353.283 201.608C354.707 202.71 356.06 203.883 357.371 205.124C359.926 207.534 362.225 210.115 364.2 212.835Z" fill="white" fill-opacity="0.5"/>
</g>
</g>
</g>
<defs>
<linearGradient id="paint0_linear_1390_27591" x1="428.617" y1="245.134" x2="320.674" y2="353.076" gradientUnits="userSpaceOnUse">
<stop stop-color="#FF8960"/>
<stop offset="1" stop-color="#FF62A5"/>
</linearGradient>
<linearGradient id="paint1_linear_1390_27591" x1="388.574" y1="278.213" x2="353.754" y2="313.033" gradientUnits="userSpaceOnUse">
<stop stop-color="#FF404E"/>
<stop offset="1" stop-color="#FF62A5"/>
</linearGradient>
</defs>
</svg>
