<svg width="72" height="72" viewBox="0 0 72 72" fill="none" xmlns="http://www.w3.org/2000/svg">
<rect x="0.5" y="0.5" width="71" height="71" rx="35.5" fill="#FCFCFD"/>
<g filter="url(#filter0_d_585_17771)">
<rect x="16" y="16" width="40" height="40" rx="8" fill="white"/>
<path d="M32.667 39.3333L36.0003 36M36.0003 36L39.3337 39.3333M36.0003 36V43.5M42.667 39.9524C43.6849 39.1117 44.3337 37.8399 44.3337 36.4167C44.3337 33.8854 42.2816 31.8333 39.7503 31.8333C39.5682 31.8333 39.3979 31.7383 39.3054 31.5814C38.2187 29.7374 36.2124 28.5 33.917 28.5C30.4652 28.5 27.667 31.2982 27.667 34.75C27.667 36.4718 28.3632 38.0309 29.4894 39.1613" stroke="#EB5017" stroke-width="1.66667" stroke-linecap="round" stroke-linejoin="round"/>
<rect x="16.5" y="16.5" width="39" height="39" rx="7.5" stroke="#EAECF0"/>
</g>
<rect x="0.5" y="0.5" width="71" height="71" rx="35.5" stroke="#EB5017" stroke-dasharray="2 2"/>
<defs>
<filter id="filter0_d_585_17771" x="14" y="15" width="44" height="44" filterUnits="userSpaceOnUse" color-interpolation-filters="sRGB">
<feFlood flood-opacity="0" result="BackgroundImageFix"/>
<feColorMatrix in="SourceAlpha" type="matrix" values="0 0 0 0 0 0 0 0 0 0 0 0 0 0 0 0 0 0 127 0" result="hardAlpha"/>
<feOffset dy="1"/>
<feGaussianBlur stdDeviation="1"/>
<feColorMatrix type="matrix" values="0 0 0 0 0.0627451 0 0 0 0 0.0941176 0 0 0 0 0.156863 0 0 0 0.05 0"/>
<feBlend mode="normal" in2="BackgroundImageFix" result="effect1_dropShadow_585_17771"/>
<feBlend mode="normal" in="SourceGraphic" in2="effect1_dropShadow_585_17771" result="shape"/>
</filter>
</defs>
</svg>
