<svg width="25" height="24" viewBox="0 0 25 24" fill="none" xmlns="http://www.w3.org/2000/svg">
<path d="M12.5 6.44V9.77" stroke="#1A1A1A" stroke-width="1.5" stroke-miterlimit="10" stroke-linecap="round"/>
<path d="M12.5199 2C8.8399 2 5.8599 4.98 5.8599 8.66V10.76C5.8599 11.44 5.5799 12.46 5.2299 13.04L3.9599 15.16C3.1799 16.47 3.7199 17.93 5.1599 18.41C9.9399 20 15.1099 20 19.8899 18.41C21.2399 17.96 21.8199 16.38 21.0899 15.16L19.8199 13.04C19.4699 12.46 19.1899 11.43 19.1899 10.76V8.66C19.1799 5 16.1799 2 12.5199 2Z" stroke="#1A1A1A" stroke-width="1.5" stroke-miterlimit="10" stroke-linecap="round"/>
<path d="M15.8299 18.82C15.8299 20.65 14.3299 22.15 12.4999 22.15C11.5899 22.15 10.7499 21.77 10.1499 21.17C9.54992 20.57 9.16992 19.73 9.16992 18.82" stroke="#1A1A1A" stroke-width="1.5" stroke-miterlimit="10"/>
</svg>
