<svg width="40" height="40" viewBox="0 0 40 40" fill="none" xmlns="http://www.w3.org/2000/svg">
<path fill-rule="evenodd" clip-rule="evenodd" d="M6.5 4.16675C5.67157 4.16675 5 4.83832 5 5.66675V29.3231C5 30.1515 5.67157 30.8231 6.5 30.8231H13.3592V35.8724C13.3592 36.9117 14.6159 37.4323 15.3508 36.6973L21.2251 30.8231H28.963C29.3608 30.8231 29.7423 30.665 30.0236 30.3837L34.5607 25.8467C34.842 25.5654 35 25.1839 35 24.786V5.66675C35 4.83832 34.3284 4.16675 33.5 4.16675H6.5ZM18.6982 12.8334C18.6982 12.1431 18.1386 11.5834 17.4482 11.5834C16.7579 11.5834 16.1982 12.1431 16.1982 12.8334V19.9535C16.1982 20.6439 16.7579 21.2035 17.4482 21.2035C18.1386 21.2035 18.6982 20.6439 18.6982 19.9535V12.8334ZM27.0574 12.8334C27.0574 12.1431 26.4978 11.5834 25.8074 11.5834C25.1171 11.5834 24.5574 12.1431 24.5574 12.8334V19.9535C24.5574 20.6439 25.1171 21.2035 25.8074 21.2035C26.4978 21.2035 27.0574 20.6439 27.0574 19.9535V12.8334Z" fill="#02BAF1"/>
</svg>
