<svg width="30" height="36" viewBox="0 0 30 36" fill="none" xmlns="http://www.w3.org/2000/svg">
<path d="M11.7933 15.3333C12.7933 15.3333 13.6033 16.0833 13.585 16.9999C13.585 17.9166 12.795 18.6666 11.7933 18.6666C10.81 18.6666 10 17.9166 10 16.9999C10 16.0833 10.7917 15.3333 11.7933 15.3333ZM18.2067 15.3333C19.2083 15.3333 20 16.0833 20 16.9999C20 17.9166 19.2083 18.6666 18.2067 18.6666C17.2233 18.6666 16.415 17.9166 16.415 16.9999C16.415 16.0833 17.205 15.3333 18.2067 15.3333ZM26.485 0.333252C28.4233 0.333252 30 1.94325 30 3.93825V35.3333L26.315 32.0082L24.24 30.0483L22.045 27.9649L22.955 31.2033H3.515C1.57667 31.2033 0 29.5933 0 27.5982V3.93825C0 1.94325 1.57667 0.333252 3.515 0.333252H26.4833H26.485ZM19.8683 23.1883C23.6567 23.0666 25.115 20.5283 25.115 20.5283C25.115 14.8933 22.645 10.3249 22.645 10.3249C20.1783 8.43658 17.8283 8.48825 17.8283 8.48825L17.5883 8.76825C20.5033 9.67825 21.8567 10.9916 21.8567 10.9916C20.2651 10.0949 18.5111 9.52381 16.6967 9.31159C15.5457 9.18159 14.3832 9.19279 13.235 9.34492C13.1317 9.34492 13.045 9.36325 12.9433 9.37992C12.3433 9.43325 10.885 9.65992 9.05167 10.4833C8.41833 10.7799 8.04 10.9916 8.04 10.9916C8.04 10.9916 9.46333 9.60825 12.5483 8.69825L12.3767 8.48825C12.3767 8.48825 10.0283 8.43658 7.56 10.3266C7.56 10.3266 5.09167 14.8933 5.09167 20.5283C5.09167 20.5283 6.53167 23.0649 10.32 23.1883C10.32 23.1883 10.9533 22.4016 11.47 21.7366C9.29167 21.0699 8.47 19.6699 8.47 19.6699C8.47 19.6699 8.64 19.7933 8.94833 19.9683C8.965 19.9849 8.98167 20.0033 9.01667 20.0199C9.06833 20.0566 9.12 20.0733 9.17167 20.1083C9.6 20.3533 10.0283 20.5449 10.4217 20.7033C11.125 20.9833 11.965 21.2633 12.9433 21.4566C14.4089 21.7439 15.9157 21.7495 17.3833 21.4733C18.2382 21.3207 19.0722 21.0684 19.8683 20.7216C20.4683 20.4933 21.1367 20.1599 21.84 19.6883C21.84 19.6883 20.9833 21.1233 18.7367 21.7716C19.2517 22.4366 19.87 23.1883 19.87 23.1883H19.8683Z" fill="#02BAF1"/>
</svg>
