<svg width="40" height="40" viewBox="0 0 40 40" fill="none" xmlns="http://www.w3.org/2000/svg">
<path d="M25.67 35V23.39H29.5583L30.14 18.8767H25.67V15.9967C25.67 14.69 26.0333 13.7983 27.9067 13.7983H30.2967V9.76167C29.1397 9.63891 27.9768 9.57937 26.8133 9.58333C23.3683 9.58333 21.01 11.6867 21.01 15.55V18.8767H17.1133V23.39H21.01V35H6.66667C6.22464 35 5.80072 34.8244 5.48816 34.5118C5.17559 34.1993 5 33.7754 5 33.3333V6.66667C5 6.22464 5.17559 5.80072 5.48816 5.48816C5.80072 5.17559 6.22464 5 6.66667 5H33.3333C33.7754 5 34.1993 5.17559 34.5118 5.48816C34.8244 5.80072 35 6.22464 35 6.66667V33.3333C35 33.7754 34.8244 34.1993 34.5118 34.5118C34.1993 34.8244 33.7754 35 33.3333 35H25.67Z" fill="#02BAF1"/>
</svg>
