<svg width="40" height="40" viewBox="0 0 40 40" fill="none" xmlns="http://www.w3.org/2000/svg">
<path d="M20 3.33325C24.5283 3.33325 25.0933 3.34992 26.87 3.43325C28.645 3.51659 29.8533 3.79492 30.9167 4.20825C32.0167 4.63159 32.9433 5.20492 33.87 6.12992C34.7175 6.96308 35.3733 7.9709 35.7917 9.08325C36.2033 10.1449 36.4833 11.3549 36.5667 13.1299C36.645 14.9066 36.6667 15.4716 36.6667 19.9999C36.6667 24.5283 36.65 25.0933 36.5667 26.8699C36.4833 28.6449 36.2033 29.8533 35.7917 30.9166C35.3745 32.0295 34.7185 33.0376 33.87 33.8699C33.0366 34.7171 32.0289 35.3728 30.9167 35.7916C29.855 36.2033 28.645 36.4833 26.87 36.5666C25.0933 36.6449 24.5283 36.6666 20 36.6666C15.4717 36.6666 14.9067 36.6499 13.13 36.5666C11.355 36.4833 10.1467 36.2033 9.08334 35.7916C7.97055 35.374 6.96256 34.7182 6.13001 33.8699C5.28235 33.0369 4.62656 32.029 4.20834 30.9166C3.79501 29.8549 3.51668 28.6449 3.43334 26.8699C3.35501 25.0933 3.33334 24.5283 3.33334 19.9999C3.33334 15.4716 3.35001 14.9066 3.43334 13.1299C3.51668 11.3533 3.79501 10.1466 4.20834 9.08325C4.6254 7.97022 5.28135 6.96212 6.13001 6.12992C6.9628 5.28197 7.97072 4.62613 9.08334 4.20825C10.1467 3.79492 11.3533 3.51659 13.13 3.43325C14.9067 3.35492 15.4717 3.33325 20 3.33325ZM20 11.6666C17.7899 11.6666 15.6703 12.5446 14.1075 14.1074C12.5447 15.6702 11.6667 17.7898 11.6667 19.9999C11.6667 22.2101 12.5447 24.3297 14.1075 25.8925C15.6703 27.4553 17.7899 28.3333 20 28.3333C22.2101 28.3333 24.3298 27.4553 25.8926 25.8925C27.4554 24.3297 28.3333 22.2101 28.3333 19.9999C28.3333 17.7898 27.4554 15.6702 25.8926 14.1074C24.3298 12.5446 22.2101 11.6666 20 11.6666ZM30.8333 11.2499C30.8333 10.6974 30.6139 10.1675 30.2232 9.77678C29.8325 9.38608 29.3025 9.16659 28.75 9.16659C28.1975 9.16659 27.6676 9.38608 27.2769 9.77678C26.8862 10.1675 26.6667 10.6974 26.6667 11.2499C26.6667 11.8025 26.8862 12.3324 27.2769 12.7231C27.6676 13.1138 28.1975 13.3333 28.75 13.3333C29.3025 13.3333 29.8325 13.1138 30.2232 12.7231C30.6139 12.3324 30.8333 11.8025 30.8333 11.2499ZM20 14.9999C21.3261 14.9999 22.5979 15.5267 23.5355 16.4644C24.4732 17.4021 25 18.6738 25 19.9999C25 21.326 24.4732 22.5978 23.5355 23.5355C22.5979 24.4731 21.3261 24.9999 20 24.9999C18.6739 24.9999 17.4022 24.4731 16.4645 23.5355C15.5268 22.5978 15 21.326 15 19.9999C15 18.6738 15.5268 17.4021 16.4645 16.4644C17.4022 15.5267 18.6739 14.9999 20 14.9999Z" fill="#02BAF1"/>
</svg>
