<svg width="34" height="28" viewBox="0 0 34 28" fill="none" xmlns="http://www.w3.org/2000/svg">
<path d="M33.3496 4.37881C33.4461 4.24419 33.3035 4.07038 33.149 4.13026C32.0511 4.55581 30.9037 4.84292 29.7333 4.98442C31.0365 4.20588 32.0421 3.02074 32.5998 1.61764C32.6566 1.4747 32.5005 1.34706 32.3658 1.42142C31.1546 2.09031 29.8484 2.57197 28.4915 2.84937C28.4347 2.86098 28.3761 2.84164 28.3362 2.79957C27.318 1.72511 25.9776 1.00972 24.5163 0.762501C23.0244 0.510093 21.4909 0.760013 20.1563 1.47306C18.8217 2.18612 17.7615 3.32197 17.1421 4.70248C16.553 6.01507 16.3941 7.47826 16.6846 8.88347C16.7072 8.9925 16.6218 9.09544 16.5107 9.08854C13.8706 8.92456 11.2911 8.22235 8.93108 7.02418C6.57706 5.82907 4.49251 4.16646 2.80439 2.13891C2.72947 2.04892 2.58747 2.06057 2.53288 2.16416C2.0076 3.16094 1.73257 4.27192 1.73332 5.40108C1.73119 6.52505 2.00701 7.63211 2.53624 8.62369C3.06547 9.61527 3.83168 10.4606 4.76665 11.0844C3.77511 11.0574 2.8029 10.8123 1.91873 10.3679C1.80479 10.3106 1.66811 10.3921 1.67404 10.5195C1.74298 12.0016 2.28707 13.4895 3.22884 14.631C4.23104 15.8458 5.62208 16.6772 7.16665 16.9844C6.57208 17.1654 5.95478 17.2608 5.33332 17.2677C4.99508 17.2638 4.65751 17.2388 4.32254 17.193C4.19835 17.1761 4.09693 17.294 4.14041 17.4116C4.60111 18.6574 5.41498 19.7445 6.48511 20.538C7.6292 21.3864 9.00928 21.857 10.4333 21.8844C8.02866 23.7765 5.05979 24.8092 1.99999 24.8177C1.68558 24.8188 1.37131 24.8086 1.05779 24.7872C0.881108 24.7752 0.79985 25.0106 0.952142 25.101C3.93342 26.8702 7.34097 27.8053 10.8167 27.8011C13.3828 27.8277 15.9285 27.3428 18.3052 26.3745C20.6818 25.4063 22.8417 23.9742 24.6587 22.1619C26.4756 20.3496 27.9133 18.1934 28.8876 15.8193C29.8619 13.4451 30.3534 10.9006 30.3333 8.33441V7.5347C30.3333 7.48208 30.3582 7.4326 30.4002 7.40089C31.5307 6.54732 32.5248 5.52826 33.3496 4.37881Z" fill="#02BAF1"/>
</svg>
