<svg width="34" height="26" viewBox="0 0 34 26" fill="none" xmlns="http://www.w3.org/2000/svg">
<path fill-rule="evenodd" clip-rule="evenodd" d="M8.64814 1.15092C14.2076 0.715971 19.7925 0.715971 25.352 1.15092L29.0865 1.44309C31.1666 1.60582 32.8683 3.16482 33.2121 5.22277C34.0725 10.3719 34.0725 15.6282 33.2121 20.7773C32.8683 22.8353 31.1666 24.3943 29.0865 24.557L25.352 24.8492C19.7925 25.2841 14.2076 25.2841 8.64814 24.8492L4.91364 24.557C2.83351 24.3943 1.13181 22.8353 0.787959 20.7773C-0.072386 15.6282 -0.072386 10.3719 0.787959 5.22277C1.13181 3.16482 2.83351 1.60582 4.91364 1.44309L8.64814 1.15092ZM13.6667 17.117V8.88315C13.6667 8.4945 14.0907 8.25444 14.4239 8.4544L21.2854 12.5713C21.6091 12.7655 21.6091 13.2346 21.2854 13.4288L14.4239 17.5457C14.0907 17.7457 13.6667 17.5056 13.6667 17.117Z" fill="#02BAF1"/>
</svg>
